<svg width="41" height="42" fill="none" xmlns="http://www.w3.org/2000/svg"><path fill-rule="evenodd" clip-rule="evenodd" d="M37.999 35.013l-30.026-.012c-.59-.008-.91.038-1.696.404l-4.86 2.26a.91.91 0 00-.528.84c0 .364.207.694.525.84 1.594.743 4.863 2.263 4.863 2.263.736.342 1.055.38 1.577.38L19.621 42a.59.59 0 00.579-.603.59.59 0 00-.579-.602H8.57V39.11h25.55v1.686H22.493a.59.59 0 00-.579.602.59.59 0 00.579.603h15.506c1.304 0 2.365-1.104 2.365-2.46v-2.066c0-1.357-1.06-2.46-2.365-2.46zM4.244 37.67v1.672l-.557-.259h-.001l-1.239-.577 1.797-.836zm1.157-.538v2.749c.422.196 1.84.843 2.011.885v-4.518c-.172.041-2.011.884-2.011.884zm3.168.772v-1.686H34.12v1.686H8.569zm29.43 2.89c.666 0 1.209-.562 1.209-1.255v-2.065c0-.692-.543-1.255-1.21-1.255h-2.72v4.576h2.72zM1.912 32l18.177-.002a.603.603 0 00.595-.611.603.603 0 00-.596-.611l-18.009.002V5.848h2.38V26.27c0 .554.44 1.005.981 1.005h24.686c.408 0 .763-.226.904-.576.14-.348.047-.738-.25-1.042L11.436 5.848H33.33v19.371c0 .571.453 1.035 1.01 1.035h2.624c1.218 0 2.209 1.015 2.209 2.261 0 1.247-.991 2.26-2.21 2.26h-14.14a.603.603 0 00-.595.612c0 .337.266.61.595.61h14.143c1.874 0 3.4-1.562 3.4-3.482V5.611c0-1.922-1.526-3.485-3.4-3.485H34.34c-.556 0-1.01.463-1.01 1.033v1.467H10.242L6.037.32c-.298-.305-.68-.399-1.02-.252-.342.147-.56.511-.558.924v3.634H1.912c-.564 0-1.023.471-1.023 1.05V30.95c0 .58.459 1.051 1.023 1.051zm32.61-28.652h2.443c1.218 0 2.209 1.015 2.209 2.263V25.87a3.339 3.339 0 00-2.21-.838h-2.442V3.348zm-5.04 22.707L5.65 1.65v24.405h2.554v-.858c0-.338.267-.611.595-.611.33 0 .596.273.596.61v.858h2.556V24.39c0-.337.266-.61.595-.61.329 0 .595.273.595.61v1.666h2.554v-.858c0-.338.267-.611.596-.611.328 0 .595.273.595.61v.858h2.556V24.39c0-.337.267-.61.595-.61.33 0 .596.273.596.61v1.666h2.553v-.858c0-.338.267-.611.596-.611.329 0 .595.273.595.61v.858h5.105z" fill="#000"/><path fill-rule="evenodd" clip-rule="evenodd" d="M16.956 22h-5.968c-.426 0-.7-.293-.7-.746v-6.348c0-.24 0-.686.387-.856.382-.168.657.126.858.341l5.908 6.283c.201.214.477.507.319.913-.16.413-.579.413-.804.413zm-.873-1.148l-4.718-5.017v5.017h4.718z" fill="#000"/></svg>