<svg width="41" height="42" viewBox="0 0 41 42" fill="none" xmlns="http://www.w3.org/2000/svg">
<path fill-rule="evenodd" clip-rule="evenodd" d="M37.9987 35.0134C37.9987 35.0134 7.97897 35.0007 7.97311 35.0008C7.38233 34.9927 7.06326 35.0395 6.27693 35.4054L1.41639 37.6655C1.09061 37.8157 0.888364 38.1374 0.888672 38.505C0.888981 38.8687 1.09647 39.1989 1.41407 39.3446C3.00817 40.0881 6.2767 41.6079 6.2767 41.6079C7.0126 41.9503 7.33159 41.9887 7.85445 41.9887L19.6212 42C19.9405 42 20.1995 41.7302 20.1995 41.3974C20.1995 41.0647 19.9405 40.7949 19.6212 40.7949C19.6212 40.7949 8.61641 40.7952 8.56876 40.7956V39.1092H34.1206V40.7949H22.4927C22.1732 40.7949 21.9144 41.0647 21.9144 41.3974C21.9144 41.7302 22.1732 42 22.4927 42H37.9988C39.3032 42 40.3645 40.8961 40.3645 39.5393V37.4741C40.3644 36.1173 39.3031 35.0134 37.9987 35.0134ZM4.24433 37.6702V39.3424L3.68737 39.0833L3.68659 39.0829L3.68622 39.0827L3.68568 39.0825C3.27296 38.8905 2.86027 38.6986 2.44699 38.5059L4.24433 37.6702ZM5.40093 37.1324V39.8806C5.82308 40.0769 7.24007 40.7243 7.41217 40.7655V36.248C7.24007 36.2893 5.40093 37.1324 5.40093 37.1324ZM8.56884 37.9042V36.2178C8.61649 36.2182 8.66553 36.2185 8.71757 36.2185H34.1207V37.9042H8.56884ZM37.9987 40.7949C38.6655 40.7949 39.2078 40.2317 39.2078 39.5393V37.474C39.2078 36.7817 38.6654 36.2185 37.9987 36.2185H35.2772V40.7949H37.9987Z" fill="black"/>
<path fill-rule="evenodd" clip-rule="evenodd" d="M1.91176 32L20.0887 31.9977C20.4175 31.9977 20.684 31.7241 20.6839 31.3867C20.6839 31.0493 20.4173 30.7758 20.0885 30.7759L2.07932 30.7781V5.84759H4.45943V26.2707C4.45943 26.8252 4.89934 27.2762 5.44013 27.2762H30.126C30.534 27.2762 30.8887 27.0502 31.0297 26.7004C31.1703 26.3515 31.0772 25.9619 30.7805 25.6581L11.4346 5.84759H33.3309V25.2193C33.3309 25.7901 33.7839 26.2544 34.3406 26.2544H36.9647C38.1829 26.2544 39.1739 27.2686 39.1739 28.5151C39.1739 29.7617 38.1829 30.7758 36.9647 30.7758H22.8218C22.4929 30.7758 22.2265 31.0493 22.2265 31.3867C22.2265 31.7241 22.4929 31.9976 22.8218 31.9976H36.9646C38.8393 31.9976 40.3645 30.4354 40.3645 28.5151V5.61079C40.3645 3.68923 38.8393 2.12599 36.9646 2.12599H34.3405C33.7838 2.12599 33.3309 2.58932 33.3309 3.15886V4.62582H10.2413L6.03664 0.320096C5.73914 0.0154475 5.35789 -0.0787979 5.01665 0.0678242C4.67533 0.214609 4.45657 0.579047 4.45943 0.992032V4.62574H1.91168C1.34763 4.62574 0.888672 5.09729 0.888672 5.67693V30.9489C0.888672 31.5284 1.34763 32 1.91176 32ZM34.5216 3.34776H36.9646C38.1828 3.34776 39.1739 4.36287 39.1739 5.61071V25.87C38.5792 25.3481 37.8072 25.0325 36.9646 25.0325H34.5216V3.34776ZM29.4815 26.0545L5.65008 1.65045V26.0545H8.20402V25.1965C8.20402 24.8591 8.47057 24.5856 8.79935 24.5856C9.12813 24.5856 9.39467 24.8591 9.39467 25.1965V26.0545H11.9507V24.3891C11.9507 24.0517 12.2172 23.7782 12.546 23.7782C12.8748 23.7782 13.1413 24.0517 13.1413 24.3891V26.0545H15.6952V25.1965C15.6952 24.8591 15.9617 24.5856 16.2905 24.5856C16.6193 24.5856 16.8858 24.8591 16.8858 25.1965V26.0545H19.442V24.3891C19.442 24.0517 19.7086 23.7782 20.0373 23.7782C20.3661 23.7782 20.6327 24.0517 20.6327 24.3891V26.0545H23.1865V25.1965C23.1865 24.8591 23.453 24.5856 23.7819 24.5856C24.1107 24.5856 24.3772 24.8591 24.3772 25.1965V26.0545H29.4815Z" fill="black"/>
<path fill-rule="evenodd" clip-rule="evenodd" d="M16.9562 22H10.9876C10.5624 22 10.2877 21.7074 10.2876 21.2544V14.9056C10.2876 14.666 10.2876 14.2202 10.6755 14.0496C11.0572 13.8818 11.3321 14.1763 11.5328 14.3914L17.4414 20.6744C17.6425 20.8881 17.9177 21.1808 17.76 21.587C17.5997 22 17.181 22 16.9562 22ZM16.0829 20.8518L11.3651 15.8349V20.8518H16.0829Z" fill="black"/>
</svg>
